<svg height="320" viewBox="0 0 320 320" width="320" xmlns="http://www.w3.org/2000/svg">
  <style>
      g {
          fill: #363636;
      }
      @media (prefers-color-scheme: dark) {
          g {
              fill: #ebebeb;
          }
      }
  </style>
  <g fill-rule="nonzero"><path d="m68.998 186.008v-12.782l-20.916-12.616v-.332l20.916-12.616v-12.782l-32.536 20.75v9.628z"/><path d="m133.235 186v-11.952h-22.991v-41.998h-14.276v53.95zm23.655 0v-18.094h5.146l9.296 18.094h15.936l-11.703-20.916c5.229-2.822 8.715-7.885 8.715-15.604 0-13.446-9.96-17.43-21.58-17.43h-20.086v53.95zm4.814-29.382h-4.814v-13.28h4.814c5.644 0 8.632 1.494 8.632 6.142s-2.988 7.138-8.632 7.138z"/><path d="m215.098 194.28 27.39-72.21h-11.786l-27.39 72.21z"/><path d="m250.802 186.008 32.536-20.75v-9.628l-32.536-20.75v12.782l20.916 12.616v.332l-20.916 12.616z"/></g>
</svg>
